<?xml version="1.0" encoding="UTF-8"?>
<svg version="1.1" xmlns="http://www.w3.org/2000/svg" width="512" height="512">
<path d="M0 0 C1.38940796 0.01522705 1.38940796 0.01522705 2.80688477 0.03076172 C49.76459982 1.06315119 96.62653921 23.44566907 130.3125 55.375 C131.04436523 56.05804199 131.04436523 56.05804199 131.79101562 56.75488281 C151.4739899 75.22452305 165.48299622 97.78565613 176.3125 122.375 C176.75078125 121.36824219 177.1890625 120.36148438 177.640625 119.32421875 C184.53514023 103.88771119 193.12295137 89.12055948 204.3125 76.375 C204.99441406 75.58480469 205.67632812 74.79460937 206.37890625 73.98046875 C216.43012039 62.56272102 227.03680764 52.3670292 239.3125 43.375 C239.85616211 42.97104004 240.39982422 42.56708008 240.95996094 42.15087891 C273.16708825 18.50330345 325.554443 -5.01730552 366.3125 0.375 C370.26961229 1.97509141 372.95843126 3.60967971 375.625 6.9375 C376.11613281 7.53691406 376.60726563 8.13632813 377.11328125 8.75390625 C381.52882705 14.72280367 379.82681215 24.42437681 378.9140625 31.43554688 C370.27396242 87.03126775 346.07564596 140.83287525 300.625 175.9375 C267.40603946 200.10816864 229.29240112 214.83162509 188.3125 218.375 C183.56109536 247.91066049 181.03680817 277.52929972 179.3125 307.375 C180.5190625 307.50777344 181.725625 307.64054687 182.96875 307.77734375 C197.73935428 309.64313845 213.23409771 317.54604157 224.3125 327.375 C225.14265625 328.0865625 225.9728125 328.798125 226.828125 329.53125 C234.43377757 336.18050315 240.60858777 343.06047391 246.125 351.5 C246.51051025 352.08612061 246.89602051 352.67224121 247.29321289 353.27612305 C249.57389624 356.86222081 251.14005567 360.29315678 252.3125 364.375 C253.71048828 364.23191406 253.71048828 364.23191406 255.13671875 364.0859375 C274.32435391 362.41744749 293.04380884 366.50742743 308.37890625 378.75 C309.01699219 379.28625 309.65507812 379.8225 310.3125 380.375 C311.06402344 380.99375 311.81554687 381.6125 312.58984375 382.25 C322.88673855 391.02206346 329.31287264 401.8759316 334.3125 414.375 C334.91578125 414.17003906 335.5190625 413.96507812 336.140625 413.75390625 C336.93984375 413.48449219 337.7390625 413.21507812 338.5625 412.9375 C339.35140625 412.67066406 340.1403125 412.40382813 340.953125 412.12890625 C342.12101563 411.75572266 342.12101563 411.75572266 343.3125 411.375 C344.20001953 411.08882813 344.20001953 411.08882813 345.10546875 410.796875 C357.94613105 408.34237672 369.7235907 410.55687557 380.625 417.625 C389.47783906 424.25062164 394.76472769 433.62640406 396.93359375 444.484375 C398.71116078 458.04519562 395.0278655 469.45728345 386.859375 480.3046875 C380.2061932 487.86512136 369.36266199 492.79067951 359.4375 493.61328125 C345.67302672 493.94018749 335.88439701 490.10370054 325.3125 481.375 C322.79972251 483.82820733 320.51266983 486.32947654 318.3125 489.0625 C306.93739081 502.08687876 289.81938643 511.1839836 272.54101562 512.60253906 C251.25273798 513.70652998 230.6312233 509.99049971 214.3125 495.375 C212.96150897 494.05956137 211.62044331 492.73324882 210.3125 491.375 C209.40371094 491.76171875 208.49492187 492.1484375 207.55859375 492.546875 C180.33763839 503.90659986 151.85353066 506.68424815 124.02368164 495.59008789 C120.75957595 494.2416701 117.53231422 492.82595426 114.3125 491.375 C113.508125 492.2103125 113.508125 492.2103125 112.6875 493.0625 C97.7207082 507.63542886 78.7029959 513.02338307 58.16503906 512.84814453 C38.24629549 512.2652645 20.70304638 503.97680845 6.78515625 489.80078125 C4.9100331 487.69508238 3.10143876 485.55365508 1.3125 483.375 C0.6525 482.715 -0.0075 482.055 -0.6875 481.375 C-1.33074219 481.90609375 -1.97398438 482.4371875 -2.63671875 482.984375 C-13.31950441 491.33553982 -24.11408746 494.77735512 -37.6875 493.375 C-48.07063794 491.5488958 -58.2789221 485.8362031 -64.6875 477.375 C-71.72630867 465.73576904 -74.47357875 454.70541837 -71.5 441.375 C-70.00170958 435.82708502 -67.82595691 431.17207179 -64.6875 426.375 C-64.130625 425.50875 -63.57375 424.6425 -63 423.75 C-54.86226239 415.39232353 -45.03555074 410.35258395 -33.36010742 409.95654297 C-26.02941181 409.89408592 -19.55523254 410.6250573 -12.6875 413.375 C-11.6975 413.705 -10.7075 414.035 -9.6875 414.375 C-9.39617187 413.69695312 -9.10484375 413.01890625 -8.8046875 412.3203125 C-2.42263636 397.8302467 5.78358811 385.16235039 19.3125 376.375 C20.08207031 375.86324219 20.85164063 375.35148437 21.64453125 374.82421875 C27.59412853 371.0483326 33.60260914 368.4890752 40.3125 366.375 C41.529375 365.983125 42.74625 365.59125 44 365.1875 C52.97269237 363.10687568 63.2786387 362.68115101 72.3125 364.375 C72.57804688 363.49328125 72.84359375 362.6115625 73.1171875 361.703125 C80.82770385 340.23462849 101.49691159 323.78327782 121.32104492 314.00976562 C128.40613874 310.68698183 136.42052476 307.375 144.3125 307.375 C144.27769531 306.31152344 144.24289063 305.24804688 144.20703125 304.15234375 C143.61733307 276.30414822 146.70224533 248.23959364 150.99291992 220.75878906 C151.37893757 218.28028623 151.37893757 218.28028623 151.3125 215.375 C150.23657593 215.12762085 150.23657593 215.12762085 149.13891602 214.87524414 C99.48912054 203.31988054 50.12262536 181.97742141 18.3125 140.375 C17.5390625 139.44042969 16.765625 138.50585938 15.96875 137.54296875 C-2.01914644 115.37117867 -12.54485192 89.02731 -18.6875 61.375 C-18.85475586 60.62976074 -19.02201172 59.88452148 -19.19433594 59.11669922 C-21.1852275 49.95645731 -22.16041798 40.70414191 -23 31.375 C-23.10086914 30.32393066 -23.20173828 29.27286133 -23.30566406 28.18994141 C-23.87207886 21.10749978 -23.95984258 14.41319917 -20.390625 8.0703125 C-19.67132813 7.29300781 -19.67132813 7.29300781 -18.9375 6.5 C-18.46828125 5.96632813 -17.9990625 5.43265625 -17.515625 4.8828125 C-11.94064887 0.28464843 -6.92919868 -0.11064335 0 0 Z " fill="#CB7300" transform="translate(93.6875,-0.375)"/>
<path d="M0 0 C1.38940796 0.01522705 1.38940796 0.01522705 2.80688477 0.03076172 C49.76459982 1.06315119 96.62653921 23.44566907 130.3125 55.375 C131.04436523 56.05804199 131.04436523 56.05804199 131.79101562 56.75488281 C151.4739899 75.22452305 165.48299622 97.78565613 176.3125 122.375 C176.75078125 121.36824219 177.1890625 120.36148438 177.640625 119.32421875 C184.53514023 103.88771119 193.12295137 89.12055948 204.3125 76.375 C204.99441406 75.58480469 205.67632812 74.79460937 206.37890625 73.98046875 C216.43012039 62.56272102 227.03680764 52.3670292 239.3125 43.375 C239.85616211 42.97104004 240.39982422 42.56708008 240.95996094 42.15087891 C273.16708825 18.50330345 325.554443 -5.01730552 366.3125 0.375 C370.26961229 1.97509141 372.95843126 3.60967971 375.625 6.9375 C376.11613281 7.53691406 376.60726563 8.13632813 377.11328125 8.75390625 C381.52882705 14.72280367 379.82681215 24.42437681 378.9140625 31.43554688 C370.27396242 87.03126775 346.07564596 140.83287525 300.625 175.9375 C267.40603946 200.10816864 229.29240112 214.83162509 188.3125 218.375 C183.55840343 247.92739403 181.10130878 277.51565337 179.3125 307.375 C167.7625 307.375 156.2125 307.375 144.3125 307.375 C143.63840291 278.38882504 146.52465476 249.37702128 150.99291992 220.75878906 C151.37893757 218.28028623 151.37893757 218.28028623 151.3125 215.375 C150.23657593 215.12762085 150.23657593 215.12762085 149.13891602 214.87524414 C99.48912054 203.31988054 50.12262536 181.97742141 18.3125 140.375 C17.5390625 139.44042969 16.765625 138.50585938 15.96875 137.54296875 C-2.01914644 115.37117867 -12.54485192 89.02731 -18.6875 61.375 C-18.85475586 60.62976074 -19.02201172 59.88452148 -19.19433594 59.11669922 C-21.1852275 49.95645731 -22.16041798 40.70414191 -23 31.375 C-23.10086914 30.32393066 -23.20173828 29.27286133 -23.30566406 28.18994141 C-23.87207886 21.10749978 -23.95984258 14.41319917 -20.390625 8.0703125 C-19.91109375 7.55210937 -19.4315625 7.03390625 -18.9375 6.5 C-18.46828125 5.96632813 -17.9990625 5.43265625 -17.515625 4.8828125 C-11.94064887 0.28464843 -6.92919868 -0.11064335 0 0 Z " fill="#90DB59" transform="translate(93.6875,-0.375)"/>
<path d="M0 0 C6.86242286 6.04117725 13.33377554 12.61107243 18.55859375 20.14453125 C18.55859375 20.80453125 18.55859375 21.46453125 18.55859375 22.14453125 C17.94113281 22.01175781 17.32367188 21.87898438 16.6875 21.7421875 C15.84058594 21.56558594 14.99367188 21.38898438 14.12109375 21.20703125 C13.29738281 21.03300781 12.47367187 20.85898437 11.625 20.6796875 C-15.38772769 15.96536432 -41.11409072 20.54863254 -64.44140625 35.14453125 C-68.33202994 37.9242535 -71.91586467 40.91738974 -75.44140625 44.14453125 C-76.24320313 44.87671875 -77.045 45.60890625 -77.87109375 46.36328125 C-90.77681591 58.70410648 -100.37353209 75.75594999 -104.44140625 93.14453125 C-104.61510742 93.85673828 -104.78880859 94.56894531 -104.96777344 95.30273438 C-108.61798488 111.50420763 -107.86888611 129.46318063 -102.44140625 145.14453125 C-101.86326172 146.84416016 -101.86326172 146.84416016 -101.2734375 148.578125 C-98.5552589 156.04651864 -95.12900627 163.11147967 -91.44140625 170.14453125 C-95.43774206 169.49567968 -98.85368257 168.24500361 -102.56640625 166.64453125 C-105.51563284 165.37952633 -108.39657929 164.15947357 -111.44140625 163.14453125 C-111.97765625 163.70140625 -112.51390625 164.25828125 -113.06640625 164.83203125 C-128.03319805 179.40496011 -147.05091035 184.79291432 -167.58886719 184.61767578 C-187.50761076 184.03479575 -205.05085987 175.7463397 -218.96875 161.5703125 C-220.84387315 159.46461363 -222.65246749 157.32318633 -224.44140625 155.14453125 C-225.10140625 154.48453125 -225.76140625 153.82453125 -226.44140625 153.14453125 C-227.08464844 153.675625 -227.72789062 154.20671875 -228.390625 154.75390625 C-239.07341066 163.10507107 -249.86799371 166.54688637 -263.44140625 165.14453125 C-273.82454419 163.31842705 -284.03282835 157.60573435 -290.44140625 149.14453125 C-297.48021492 137.50530029 -300.227485 126.47494962 -297.25390625 113.14453125 C-295.75561583 107.59661627 -293.57986316 102.94160304 -290.44140625 98.14453125 C-289.88453125 97.27828125 -289.32765625 96.41203125 -288.75390625 95.51953125 C-280.61616864 87.16185478 -270.78945699 82.1221152 -259.11401367 81.72607422 C-251.78331806 81.66361717 -245.30913879 82.39458855 -238.44140625 85.14453125 C-237.45140625 85.47453125 -236.46140625 85.80453125 -235.44140625 86.14453125 C-235.15007812 85.46648437 -234.85875 84.7884375 -234.55859375 84.08984375 C-228.17654261 69.59977795 -219.97031814 56.93188164 -206.44140625 48.14453125 C-205.67183594 47.63277344 -204.90226562 47.12101562 -204.109375 46.59375 C-198.15977772 42.81786385 -192.15129711 40.25860645 -185.44140625 38.14453125 C-183.61609375 37.55671875 -183.61609375 37.55671875 -181.75390625 36.95703125 C-172.78121388 34.87640693 -162.47526755 34.45068226 -153.44140625 36.14453125 C-153.17585937 35.2628125 -152.9103125 34.38109375 -152.63671875 33.47265625 C-144.93087759 12.01717695 -124.25361723 -4.47724853 -104.421875 -14.22290039 C-70.86116813 -29.92393498 -28.10866597 -23.82103844 0 0 Z " fill="#AA6100" transform="translate(319.44140625,327.85546875)"/>
<path d="M0 0 C1.38940796 0.01522705 1.38940796 0.01522705 2.80688477 0.03076172 C49.76459982 1.06315119 96.62653921 23.44566907 130.3125 55.375 C131.04436523 56.05804199 131.04436523 56.05804199 131.79101562 56.75488281 C149.37749741 73.25726641 162.49158641 93.11979474 173.125 114.6875 C173.64090698 115.69973633 173.64090698 115.69973633 174.16723633 116.73242188 C177.41821684 123.63869487 175.49813061 129.28378768 173.23828125 136.25 C172.81651551 137.56636304 172.39489022 138.88277109 171.97338867 140.19921875 C171.75315033 140.88032715 171.53291199 141.56143555 171.30599976 142.26318359 C165.12744035 161.42322443 159.89818155 180.64390227 155.9597168 200.3984375 C154.94707192 205.4725225 153.82480219 210.42564738 152.3125 215.375 C101.66380306 205.15104232 50.47186269 182.43416651 18.3125 140.375 C17.5390625 139.44042969 16.765625 138.50585938 15.96875 137.54296875 C-2.01914644 115.37117867 -12.54485192 89.02731 -18.6875 61.375 C-18.85475586 60.62976074 -19.02201172 59.88452148 -19.19433594 59.11669922 C-21.1852275 49.95645731 -22.16041798 40.70414191 -23 31.375 C-23.10086914 30.32393066 -23.20173828 29.27286133 -23.30566406 28.18994141 C-23.87207886 21.10749978 -23.95984258 14.41319917 -20.390625 8.0703125 C-19.91109375 7.55210937 -19.4315625 7.03390625 -18.9375 6.5 C-18.46828125 5.96632813 -17.9990625 5.43265625 -17.515625 4.8828125 C-11.94064887 0.28464843 -6.92919868 -0.11064335 0 0 Z " fill="#6CC729" transform="translate(93.6875,-0.375)"/>
<path d="M0 0 C3.5625 0.4375 3.5625 0.4375 6 2 C8.26409958 5.53199535 8.3212407 7.29891434 7.5625 11.4375 C5.59160612 14.46625386 3.12204439 16.90076795 0.5625 19.4375 C-0.63052734 20.66726562 -0.63052734 20.66726562 -1.84765625 21.921875 C-5.49009501 25.63750032 -9.17419732 29.22886642 -13.12133789 32.61914062 C-17.32708956 36.28997497 -21.28807431 40.15961763 -25.21875 44.12109375 C-25.91770386 44.82146255 -26.61665771 45.52183136 -27.33679199 46.24342346 C-29.53941539 48.45158458 -31.73851081 50.66322037 -33.9375 52.875 C-35.44247508 54.38499814 -36.94768135 55.8947659 -38.453125 57.40429688 C-42.11725829 61.07937641 -45.7782348 64.75757356 -49.4375 68.4375 C-48.21643555 68.4468457 -46.99537109 68.45619141 -45.73730469 68.46582031 C-41.20454501 68.50570923 -36.67246485 68.57146493 -32.14013672 68.64501953 C-30.17896253 68.67323553 -28.21767449 68.69444694 -26.25634766 68.70849609 C-23.43593023 68.72991699 -20.61688257 68.77656209 -17.796875 68.828125 C-16.48260529 68.82996796 -16.48260529 68.82996796 -15.14178467 68.83184814 C-9.08428463 68.97741609 -9.08428463 68.97741609 -5.87988281 71.25683594 C-3.76952667 74.44737437 -3.97011696 76.69843569 -4.4375 80.4375 C-6.19765131 83.6225357 -6.93640916 84.27046972 -10.4375 85.4375 C-12.22027759 85.4548542 -14.00397296 85.40822123 -15.78491211 85.32543945 C-21.30175501 85.10098351 -26.81357855 84.95698634 -32.33443356 84.87453938 C-35.66687979 84.81987761 -38.98334904 84.72009356 -42.31323242 84.55639648 C-59.5459425 83.56842971 -59.5459425 83.56842971 -74.60205078 90.82958984 C-78.99618463 94.97273991 -82.90018689 99.43573094 -86.63430786 104.17709351 C-88.73888139 106.81529915 -90.98659056 109.12428551 -93.4375 111.4375 C-91.56831909 111.39822388 -91.56831909 111.39822388 -89.66137695 111.3581543 C-85.03037529 111.2675344 -80.3994517 111.21020772 -75.76782227 111.1628418 C-73.76475844 111.1377245 -71.76178602 111.10362405 -69.7590332 111.06030273 C-66.87688634 110.99952812 -63.99595279 110.97126268 -61.11328125 110.94921875 C-60.22038895 110.92341232 -59.32749664 110.8976059 -58.407547 110.87101746 C-53.92461205 110.86900316 -52.03914228 110.97903069 -48.36791992 113.77661133 C-46.4375 116.4375 -46.4375 116.4375 -45.875 119.5 C-46.55941204 123.07415177 -47.58568869 124.23753128 -50.4375 126.4375 C-53.5827818 127.48592727 -55.52998922 127.48854585 -58.81665039 127.35717773 C-64.35755405 127.16549447 -69.89417407 127.0441526 -75.4380579 126.97816372 C-78.78491359 126.93378644 -82.11914932 126.84880331 -85.46411133 126.70727539 C-102.23600382 125.66999782 -102.23600382 125.66999782 -117.04248047 132.30517578 C-120.94525611 135.97858073 -124.30558187 139.98173039 -127.58612061 144.21118164 C-130.00002334 147.11394484 -132.70967505 149.48755601 -135.60856628 151.89356995 C-138.70093972 154.50405727 -141.48681603 157.41985669 -144.3125 160.3125 C-151.10551533 167.25990204 -151.10551533 167.25990204 -155.25 167.8125 C-158.4375 167.4375 -158.4375 167.4375 -161.375 165.375 C-163.4375 162.4375 -163.4375 162.4375 -163.41040039 159.13671875 C-162.24271795 154.69688829 -160.16729208 152.37906268 -156.93359375 149.3125 C-156.0985305 148.48661377 -156.0985305 148.48661377 -155.24659729 147.64404297 C-153.46969651 145.89395239 -151.67283591 144.1660491 -149.875 142.4375 C-148.6933383 141.27738787 -147.51298617 140.11594025 -146.33398438 138.953125 C-141.6904008 134.39377194 -137.02640419 129.87753674 -132.09765625 125.625 C-131.53588684 125.13385208 -130.97411743 124.64270416 -130.39532471 124.13667297 C-129.0951491 123.0082659 -127.77509022 121.90235163 -126.4359436 120.82048035 C-120.07834709 115.23168932 -118.73634087 109.98005465 -117.42578125 101.80078125 C-117.2048027 100.60317673 -116.98382416 99.4055722 -116.75614929 98.17167664 C-116.05758857 94.36910414 -115.40056196 90.56105412 -114.75 86.75 C-114.0846171 82.92928233 -113.41001592 79.11103281 -112.7117157 75.29618835 C-112.27960075 72.92918807 -111.86682365 70.55855439 -111.47590637 68.18440247 C-109.86980297 59.28641541 -109.86980297 59.28641541 -107.00073242 56.17260742 C-104.4375 54.4375 -104.4375 54.4375 -100.8125 54.4375 C-97.48333 55.42392074 -96.46941241 55.78455798 -94.4375 58.4375 C-92.80116206 66.1032273 -95.29846888 74.41169966 -97.01391602 81.88671875 C-97.28546509 83.07007812 -97.28546509 83.07007812 -97.5625 84.27734375 C-97.73007812 84.98238037 -97.89765625 85.68741699 -98.0703125 86.41381836 C-98.55652018 88.75066893 -98.55652018 88.75066893 -98.4375 92.4375 C-96.41490346 90.58522737 -94.39441388 88.7307374 -92.375 86.875 C-91.81361328 86.36130859 -91.25222656 85.84761719 -90.67382812 85.31835938 C-89.51629449 84.25342843 -88.36649027 83.18004515 -87.22387695 82.09912109 C-86.02228844 80.98144836 -84.79029448 79.89568823 -83.53198242 78.84228516 C-78.2061089 74.13524598 -76.99344001 69.82946201 -75.875 62.9375 C-75.58894897 61.40838989 -75.58894897 61.40838989 -75.29711914 59.84838867 C-74.65175716 56.38224947 -74.04431305 52.91058528 -73.4375 49.4375 C-72.56653383 44.56285581 -71.670066 39.69325111 -70.75784302 34.82617188 C-70.38068858 32.78084935 -70.02339723 30.73274563 -69.66772461 28.68359375 C-69.31979858 26.79253906 -69.31979858 26.79253906 -68.96484375 24.86328125 C-68.66694946 23.18359253 -68.66694946 23.18359253 -68.36303711 21.4699707 C-67.30229684 17.99451438 -65.96862466 16.02752192 -63.4375 13.4375 C-60 12.3125 -60 12.3125 -56.4375 12.4375 C-53.5 14.4375 -53.5 14.4375 -51.4375 17.4375 C-51.12580581 22.25757646 -51.71052662 26.54680785 -52.75 31.24609375 C-53.02070313 32.48681641 -53.29140625 33.72753906 -53.5703125 35.00585938 C-53.85648437 36.28267578 -54.14265625 37.55949219 -54.4375 38.875 C-54.72723005 40.1919106 -55.01629858 41.50896693 -55.3046875 42.82617188 C-56.00914185 46.03143915 -56.72026807 49.23507213 -57.4375 52.4375 C-56.7775 52.4375 -56.1175 52.4375 -55.4375 52.4375 C-55.4375 51.7775 -55.4375 51.1175 -55.4375 50.4375 C-53.9588623 48.98010254 -53.9588623 48.98010254 -51.91992188 47.29101562 C-47.63725831 43.64710627 -43.66795149 39.7804506 -39.71875 35.78125 C-39.01657349 35.07528687 -38.31439697 34.36932373 -37.59094238 33.64196777 C-35.37065397 31.40958642 -33.15366045 29.17397889 -30.9375 26.9375 C-28.01340521 23.98659622 -25.08586943 21.03916797 -22.15625 18.09375 C-21.500802 17.43000366 -20.845354 16.76625732 -20.17004395 16.08239746 C-16.31967825 12.21197906 -12.35812568 8.54170843 -8.20910645 4.99255371 C-6.41848753 3.48028984 -6.41848753 3.48028984 -4.92077637 1.76428223 C-3.4375 0.4375 -3.4375 0.4375 0 0 Z " fill="#5EAC24" transform="translate(437.4375,24.5625)"/>
<path d="M0 0 C2.30151615 1.6511563 4.08406305 3.19983015 6.0625 5.1875 C6.67101807 5.77539307 7.27953613 6.36328613 7.90649414 6.96899414 C10.29235631 9.2918261 12.64670225 11.64416181 15 14 C16.1336943 15.13225635 17.26749029 16.26441089 18.40136719 17.39648438 C28.74446457 27.72982452 28.74446457 27.72982452 33.74438477 32.7800293 C39.65644962 38.74133413 45.55997492 44.60097483 52 50 C52.33 50.33 52.66 50.66 53 51 C51.81430914 42.72806262 50.34976698 34.57441647 48.5859375 26.41015625 C47.17162277 18.17884452 47.17162277 18.17884452 49.625 14.6875 C52.57951586 12.58823873 54.36924173 12 58 12 C61.36666052 14.05850911 62.78642262 15.45445368 64.23583984 19.15673828 C64.65663818 21.03208252 64.65663818 21.03208252 65.0859375 22.9453125 C65.24508636 23.63956329 65.40423523 24.33381409 65.56820679 25.04910278 C66.82863261 30.72480067 67.81237964 36.44964538 68.7890625 42.1796875 C68.93994324 43.05232239 69.09082397 43.92495728 69.24627686 44.82403564 C69.39832581 45.70452576 69.55037476 46.58501587 69.70703125 47.4921875 C69.85994629 48.37745117 70.01286133 49.26271484 70.17041016 50.17480469 C70.47493956 51.98366353 70.76715255 53.79463661 71.04736328 55.60742188 C72.9582189 67.83163258 74.76865602 75.26751371 85 83 C86.48642876 84.30426984 87.96696719 85.61533377 89.4375 86.9375 C90.05496094 87.46214844 90.67242187 87.98679687 91.30859375 88.52734375 C92.94832935 89.95501193 94.47079711 91.4558023 96 93 C95.84853516 92.28980713 95.69707031 91.57961426 95.54101562 90.84790039 C94.85131449 87.58800143 94.17557694 84.32535403 93.5 81.0625 C93.14228516 79.38704102 93.14228516 79.38704102 92.77734375 77.67773438 C91.47426549 71.32988169 90.52344605 65.48243934 91 59 C93.0625 55.875 93.0625 55.875 96 54 C99.625 53.9375 99.625 53.9375 103 55 C105.72225209 57.89334008 106.53982967 60.41946733 107.23925781 64.28417969 C107.43666565 65.33917664 107.63407349 66.39417358 107.83746338 67.48114014 C108.04063171 68.61658264 108.24380005 69.75202515 108.453125 70.921875 C108.91186613 73.33350362 109.37153079 75.74495671 109.83203125 78.15625 C110.54469846 81.95060205 111.24927021 85.74596879 111.93701172 89.54492188 C112.60654095 93.21705796 113.30880169 96.88176079 114.015625 100.546875 C114.21069641 101.67422058 114.40576782 102.80156616 114.60675049 103.96307373 C116.43560351 113.25993329 120.48365244 118.01408541 127.5 124.0625 C131.76573472 127.75155487 135.95288304 131.51316315 140.0625 135.375 C140.75472656 135.98738525 141.44695312 136.59977051 142.16015625 137.23071289 C146.85545496 141.72662707 146.85545496 141.72662707 147.26147461 145.3034668 C147.03426419 147.62930154 146.61824501 149.74833725 146 152 C145.75121094 152.93972656 145.50242188 153.87945312 145.24609375 154.84765625 C144.97925781 155.57855469 144.71242187 156.30945313 144.4375 157.0625 C144.03337891 158.19365234 144.03337891 158.19365234 143.62109375 159.34765625 C143.41613281 159.89292969 143.21117187 160.43820313 143 161 C138.2297527 157.11724057 133.8816956 152.93131301 129.5625 148.5625 C125.41267 144.36543233 121.2147513 140.32620493 116.72265625 136.4921875 C113.98724889 134.12274167 111.46583952 131.65077749 109 129 C109 128.34 109 127.68 109 127 C108.2616391 127.01110306 107.5232782 127.02220612 106.76254272 127.03364563 C99.78910059 127.13401499 92.81576702 127.21004972 85.84178734 127.25906086 C82.25667776 127.28510611 78.6721672 127.3204083 75.08740234 127.37719727 C71.6249367 127.43170274 68.16304556 127.46145867 64.70018387 127.47438622 C62.74250572 127.48806074 60.78505732 127.52706523 58.82772827 127.56648254 C48.89209388 127.56960735 48.89209388 127.56960735 45.18603516 124.65698242 C43 122 43 122 42.3125 119 C43.25885582 114.87044734 44.62927853 113.56797761 48 111 C51.30754196 110.31889079 54.52968822 110.41679331 57.89453125 110.51171875 C59.31556404 110.52233086 59.31556404 110.52233086 60.76530457 110.53315735 C63.78185021 110.56107666 66.7965184 110.62381085 69.8125 110.6875 C71.86130126 110.71258604 73.9101317 110.73539867 75.95898438 110.75585938 C80.97337621 110.81089541 85.98637014 110.89715144 91 111 C89.42086374 109.40727327 87.83974787 107.81650912 86.2578125 106.2265625 C84.93740967 104.8974585 84.93740967 104.8974585 83.59033203 103.54150391 C80.83589641 100.83898979 77.99519877 98.30488052 75.02720642 95.84114075 C73 94 73 94 71.33891296 91.95185852 C68.56097934 88.60795849 66.38242072 86.34127007 62.08291626 85.27987671 C58.60078968 85.02994069 55.19712947 85.02243575 51.70703125 85.10546875 C50.44283859 85.10170731 49.17864594 85.09794586 47.87614441 85.09407043 C44.5344865 85.08884545 41.19663434 85.11609934 37.85552979 85.1619873 C33.14271553 85.22083941 28.4298551 85.22873697 23.71672058 85.22737122 C21.21250189 85.22940066 18.70822403 85.24869186 16.20429993 85.28715515 C14.50179329 85.29619621 14.50179329 85.29619621 12.76489258 85.30541992 C11.76976151 85.3184465 10.77463043 85.33147308 9.74934387 85.34489441 C6.4976291 84.93697954 4.63273089 83.91987252 2 82 C0.47508002 78.95016004 0.76437452 76.3576631 1 73 C2.83115207 70.38406847 3.90968366 70.03010545 7 69 C8.36592183 68.91432754 9.73564858 68.88226353 11.10424805 68.88647461 C11.92487228 68.88655014 12.74549652 68.88662567 13.59098816 68.88670349 C14.9129998 68.89444542 14.9129998 68.89444542 16.26171875 68.90234375 C17.62040825 68.90446617 17.62040825 68.90446617 19.00654602 68.90663147 C21.90023091 68.91222999 24.79383849 68.92478219 27.6875 68.9375 C29.64908742 68.94251519 31.61067606 68.94707807 33.57226562 68.95117188 C38.38154021 68.96219893 43.190757 68.97946253 48 69 C44.46239236 65.36289714 40.87711066 61.8395298 37.03125 58.52734375 C33.00085166 55.04628096 29.23980421 51.35128689 25.5 47.5625 C24.82001953 46.87873291 24.14003906 46.19496582 23.43945312 45.49047852 C20.56774857 42.60262227 17.70211562 39.70876925 14.8359375 36.81542969 C12.72607213 34.68734275 10.61310355 32.56237083 8.5 30.4375 C7.86642578 29.79562744 7.23285156 29.15375488 6.58007812 28.49243164 C2.7682753 24.66012988 -1.16301805 21.03535057 -5.26953125 17.52001953 C-8.61238865 14.58370038 -10.73132851 12.43291461 -11.5625 8 C-10.3513565 1.54056799 -6.25335339 -0.8933362 0 0 Z " fill="#4E901E" transform="translate(109,25)"/>
<path d="M0 0 C0.99 0 1.98 0 3 0 C7.72455903 8.30372794 12.45396807 16.62035264 16.6875 25.1875 C17.16574219 26.15042969 17.64398438 27.11335938 18.13671875 28.10546875 C19.87891942 33.94696511 17.59570328 39.73801233 15.78515625 45.3671875 C15.46145302 46.38572311 15.46145302 46.38572311 15.13121033 47.42483521 C14.44686626 49.57660162 13.75538447 51.72596986 13.0625 53.875 C9.03502327 66.30189511 9.03502327 66.30189511 6 79 C-3 70 -12 61 -21 52 C-20.34 52 -19.68 52 -19 52 C-18.89042969 51.39196533 -18.78085938 50.78393066 -18.66796875 50.1574707 C-17.50722268 44.01106075 -15.97466754 38.12066314 -14 32.1875 C-13.70601318 31.3003833 -13.41202637 30.4132666 -13.10913086 29.49926758 C-9.59179761 19.27755073 -4.87444872 9.63238264 0 0 Z " fill="#5EAC24" transform="translate(251,91)"/>
<path d="M0 0 C6.35297952 4.4858113 12.00057504 9.51068253 17.5625 14.9375 C18.39330078 15.71029297 19.22410156 16.48308594 20.08007812 17.27929688 C25.95749971 23.0303223 25.95749971 23.0303223 26.1484375 27.38671875 C25.57996094 29.17529297 25.57996094 29.17529297 25 31 C24.67968117 32.74392013 24.38059669 34.49181432 24.09765625 36.2421875 C23.75441988 38.12012444 23.40933194 39.99772379 23.0625 41.875 C22.80823242 43.31746094 22.80823242 43.31746094 22.54882812 44.7890625 C22.37931641 45.70171875 22.20980469 46.614375 22.03515625 47.5546875 C21.8844165 48.38468262 21.73367676 49.21467773 21.57836914 50.06982422 C21.38750732 50.70678223 21.19664551 51.34374023 21 52 C16.890891 54.0545545 11.2279745 51.28360496 6.94116211 50.19458008 C4.94454215 49.6892822 2.94438455 49.20041133 0.94335938 48.71289062 C-0.93319336 48.24206055 -0.93319336 48.24206055 -2.84765625 47.76171875 C-4.00273682 47.47256592 -5.15781738 47.18341309 -6.34790039 46.88549805 C-9 46 -9 46 -10 44 C-9.71521265 41.8160103 -9.3405287 39.64354512 -8.92578125 37.48046875 C-8.73812447 36.49884514 -8.73812447 36.49884514 -8.54667664 35.49739075 C-8.27832423 34.1038202 -8.00655926 32.71090322 -7.73168945 31.31860352 C-7.32198192 29.23570483 -6.92676483 27.15045432 -6.53320312 25.06445312 C-4.88429288 16.50214118 -2.76208605 8.28270219 0 0 Z " fill="#5EAC24" transform="translate(226,162)"/>
<path d="M0 0 C4.8943902 2.63299082 7.77424259 6.0513137 10.17578125 10.96875 C11.40109595 16.872539 10.87541659 22.13552308 8.30078125 27.59375 C3.64852121 32.72316491 -0.58019484 35.55391316 -7.63671875 35.90625 C-14.69324266 35.55391316 -18.92195871 32.72316491 -23.57421875 27.59375 C-26.25546267 21.90951289 -27.01053711 16.10661138 -25.13671875 10.03125 C-23.23941974 5.70084069 -20.04475263 2.8481177 -16.13671875 0.28125 C-11.04065361 -1.41743838 -5.14382507 -1.73028119 0 0 Z " fill="#AA6100" transform="translate(120.13671875,293.71875)"/>
<path d="M0 0 C4.87403188 3.3819813 6.67341615 7.4721847 7.72265625 13.1953125 C7.8179654 19.26332855 6.69822917 23.44671151 2.72265625 28.1953125 C-2.77741032 33.15878721 -7.12057916 33.54611662 -14.328125 33.4765625 C-19.55103012 32.97848413 -22.09787384 30.47307157 -25.52734375 26.7578125 C-28.92702528 21.7797074 -30.17859256 17.23701745 -29.27734375 11.1953125 C-27.14770653 4.85244706 -23.88703188 1.2006948 -18.02734375 -2.0546875 C-11.48674058 -3.83848836 -5.91489343 -3.3631402 0 0 Z " fill="#CC7400" transform="translate(395.27734375,301.8046875)"/>
<path d="M0 0 C4.879611 2.98855068 7.45156075 6.68645328 9.3125 12.0625 C10.3067404 17.37155067 9.22715954 21.53975244 6.3125 26.0625 C2.71182757 30.24706526 -1.00741145 33.52413033 -6.63671875 34.34765625 C-12.7575506 34.61580698 -16.71748691 32.75762754 -21.375 28.75 C-25.24098599 24.25709736 -27.35850249 20.29964979 -27.1015625 14.21484375 C-26.05205572 8.7593887 -23.16144254 3.73577035 -18.5625 0.5625 C-12.15782592 -2.77906908 -6.47699147 -3.14658517 0 0 Z " fill="#AA6100" transform="translate(303.6875,404.9375)"/>
<path d="M0 0 C4.74923998 2.77552986 8.30124985 6.05953094 10.79296875 11.04296875 C11.32076142 17.25468245 11.53700518 22.80131775 7.79296875 28.04296875 C3.28062946 32.56763684 -0.53859086 34.21190789 -6.89453125 34.48046875 C-12.37861055 34.42735418 -15.55118272 33.45438387 -19.6484375 29.80859375 C-23.66770624 25.25543718 -24.85563538 20.24007802 -24.61328125 14.3125 C-23.57517474 8.51307803 -20.17312981 4.40083093 -15.45703125 1.04296875 C-10.33206672 -1.78924849 -5.43490383 -2.35672821 0 0 Z " fill="#AA6100" transform="translate(373.20703125,445.95703125)"/>
<path d="M0 0 C2.42194927 1.53390121 2.88729401 2.69408374 3.875 5.375 C4.03673305 8.77139406 2.96039694 10.28560423 1 13 C0 14 0 14 -3.3125 14.3125 C-7 14 -7 14 -9.4375 12.375 C-11.47161336 9.28314769 -11.60605429 7.63632575 -11 4 C-8.05323917 -0.47907646 -5.13567732 -0.65363166 0 0 Z " fill="#CC7300" transform="translate(428,350)"/>
<path d="M0 0 C2.375 1.5625 2.375 1.5625 4 4 C4.42213381 7.43737531 4.60856522 9.82090489 3 12.9375 C-0.24021772 14.65886567 -3.41957756 14.52960415 -7 14 C-9 12.9375 -9 12.9375 -10 11 C-10.50030235 7.06905293 -10.5996142 4.8994213 -8.375 1.5625 C-5.28314769 -0.47161336 -3.63632575 -0.60605429 0 0 Z " fill="#A96100" transform="translate(86,343)"/>
<path d="M0 0 C2.42194927 1.53390121 2.88729401 2.69408374 3.875 5.375 C4.03673305 8.77139406 2.96039694 10.28560423 1 13 C0 14 0 14 -3.3125 14.3125 C-7 14 -7 14 -9.4375 12.375 C-11.47161336 9.28314769 -11.60605429 7.63632575 -11 4 C-8.05323917 -0.47907646 -5.13567732 -0.65363166 0 0 Z " fill="#CC7400" transform="translate(428,317)"/>
<path d="M0 0 C2.4375 1.5625 2.4375 1.5625 4 4 C3.9375 7.625 3.9375 7.625 3 11 C-0.49124017 13.32749345 -1.89222251 13.50299316 -6 13 C-8.7912125 11.01677007 -9.82597224 9.87013879 -10.5 6.5 C-9.33827182 0.69135908 -5.5534724 -0.92557873 0 0 Z " fill="#AB6100" transform="translate(259,463)"/>
<path d="M0 0 C3.37013879 0.67402776 4.51677007 1.7087875 6.5 4.5 C7.11793165 8.20758991 7.00197249 9.7935202 4.8125 12.875 C2.5 14.5 2.5 14.5 0 15 C-3.37013879 14.32597224 -4.51677007 13.2912125 -6.5 10.5 C-7.11793165 6.79241009 -7.00197249 5.2064798 -4.8125 2.125 C-2.5 0.5 -2.5 0.5 0 0 Z " fill="#AB6100" transform="translate(355.5,394.5)"/>
<path d="M0 0 C2.3125 1.625 2.3125 1.625 4 4 C4.45319325 7.17235276 4.52990283 9.06487736 2.9375 11.875 C-0.1069286 13.64273274 -2.5631012 13.36823916 -6 13 C-7.9375 11.9375 -7.9375 11.9375 -9 10 C-9.4375 6.5 -9.4375 6.5 -9 3 C-6.35893733 -0.03233122 -3.92985113 -0.68772395 0 0 Z " fill="#AA6100" transform="translate(427,432)"/>
<path d="M0 0 C2.4375 1.5625 2.4375 1.5625 4 4 C3.9375 7.625 3.9375 7.625 3 11 C-0.46923881 13.31282587 -1.92205575 13.42478586 -6 13 C-7.875 11.9375 -7.875 11.9375 -9 10 C-9.63316583 4.09045226 -9.63316583 4.09045226 -7.875 1.0625 C-5.06487736 -0.52990283 -3.17235276 -0.45319325 0 0 Z " fill="#AA6100" transform="translate(280,370)"/>
</svg>
